<svg enable-background="new 0 0 500 500" viewBox="0 0 500 500" xmlns="http://www.w3.org/2000/svg"><g fill="#fff"><path d="m276.803 464c-6.488 0-12.612-.98-18.245-3.001-13.717-4.92-23.133-18.875-27.228-40.355-7.817-40.996 5.256-103.744 37.177-131.807 10.006-8.795 19.525-11.386 28.297-7.702 19.609 8.243 26.706 47.289 29.197 69.915 10.57 2.113 22.823 4.969 37.046 8.703 3.387.888 5.413 4.357 4.525 7.744-.89 3.387-4.359 5.419-7.746 4.523-12.584-3.302-23.4-5.854-32.698-7.801.023.382.042.729.06 1.048.166 2.138 1.306 22.379-12.556 29.925-11.444 6.215-27.725 1.083-49.798-15.718-6.742-5.128-9.229-14.295-5.912-21.791 3.906-8.834 14.042-15.481 53.964-9.022-3.217-24.488-10.446-51.401-21-55.832-3.902-1.646-8.956.216-15.005 5.535-28.24 24.828-40.104 83.117-33.091 119.905 3.162 16.582 9.928 27.518 19.05 30.788 24.513 8.792 63.389-8.402 96.745-42.79 35.411-36.508 68.818-99.323 46.432-156.214-23.262-59.124-100.458-53.776-101.231-53.73-.779.035-36.127 1.501-77.741 6.615 3.587 40.996 6.491 104.243-4.456 143.473-7.307 26.18-19.563 41.548-36.43 45.685-21.399 5.245-48.487-8.845-78.371-40.734-26.449-28.222-38.423-61.782-32.027-89.774 3.546-15.53 14.566-36.667 46.912-49.164 25.032-9.669 58.864-16.199 90.539-20.556-1.587-16.061-3.015-26.509-3.065-26.86-.481-3.472 1.94-6.675 5.41-7.156 3.451-.495 6.672 1.94 7.155 5.408.193 1.394 1.594 11.63 3.138 26.966 40.982-5.026 75.566-6.456 78.187-6.562.605-.05 87.053-6.19 113.785 61.747 24.596 62.504-11.094 130.476-49.131 169.692-30.223 31.154-64.312 48.893-91.888 48.897zm8.931-105.347c-11.763 0-14.564 2.701-15.21 4.162-.954 2.152-.097 4.976 1.993 6.565 23.687 18.026 33.087 16.27 36.034 14.677 5.707-3.083 6.242-14.295 5.98-17.983-.078-1.412-.172-2.863-.283-4.343-12.941-2.268-22.072-3.078-28.514-3.078zm-71.347-154.066c-30.836 4.247-63.472 10.522-87.141 19.671-21.487 8.3-35.014 22.184-39.118 40.153-5.373 23.519 5.707 53.511 28.916 78.279 26.187 27.943 49.66 41.105 66.095 37.085 12.087-2.962 21.25-15.336 27.233-36.777 10.278-36.826 7.471-98.226 4.015-138.411z"/><path d="m219.59 144.964c-.014 0-.027 0-.042 0-14.872-.014-27.438-7.917-35.386-22.255-9.457-17.063-7.597-40.907 4.741-60.745 10.563-16.985 26.237-26.683 41.976-25.922 16.642.8 30.387 11.336 34.2 26.226 4.792 18.705-6.465 38.522-30.111 53.001-2.984 1.83-6.889.895-8.721-2.095-1.83-2.987-.892-6.891 2.095-8.721 18.645-11.418 27.785-26.014 24.448-39.039-2.462-9.609-11.301-16.164-22.521-16.702-11.013-.542-22.498 6.926-30.596 19.951-8.149 13.103-12.676 32.997-4.417 47.894 5.695 10.275 14.099 15.711 24.303 15.722h.03c13.386 0 27.451-9.73 35.846-24.8 1.704-3.062 5.566-4.155 8.627-2.456 3.06 1.706 4.159 5.567 2.454 8.629-10.758 19.317-28.74 31.312-46.926 31.312z"/></g></svg>