<svg enable-background="new 0 0 500 700" viewBox="0 0 500 700" xmlns="http://www.w3.org/2000/svg"><g fill="#fff"><path d="m277.448 491.165c-6.634 0-12.897-1.003-18.656-3.069-14.026-5.03-23.654-19.3-27.841-41.264-7.993-41.92 5.374-106.082 38.015-134.777 10.231-8.993 19.965-11.642 28.934-7.875 20.051 8.429 27.308 48.354 29.855 71.491 10.808 2.161 23.337 5.081 37.881 8.899 3.463.908 5.535 4.455 4.627 7.919-.91 3.463-4.457 5.541-7.92 4.625-12.868-3.377-23.927-5.986-33.435-7.976.024.391.043.746.062 1.071.17 2.186 1.335 22.883-12.839 30.599-11.702 6.355-28.35 1.107-50.92-16.072-6.894-5.244-9.437-14.617-6.046-22.283 3.994-9.033 14.359-15.83 55.18-9.225-3.29-25.04-10.682-52.56-21.474-57.091-3.99-1.683-9.158.221-15.343 5.66-28.876 25.388-41.008 84.99-33.836 122.606 3.234 16.955 10.151 28.138 19.48 31.482 25.066 8.99 64.817-8.592 98.925-43.754 36.209-37.331 70.369-101.562 47.478-159.734-23.786-60.456-102.721-54.988-103.512-54.941-.796.036-36.942 1.534-79.493 6.764 3.668 41.92 6.637 106.592-4.556 146.706-7.472 26.77-20.004 42.484-37.251 46.715-21.881 5.363-49.579-9.044-80.137-41.652-27.045-28.858-39.288-63.174-32.749-91.797 3.626-15.88 14.894-37.493 47.969-50.272 25.596-9.887 60.19-16.564 92.579-21.019-1.623-16.423-3.083-27.107-3.134-27.465-.492-3.55 1.983-6.826 5.532-7.318 3.529-.507 6.822 1.983 7.316 5.53.197 1.426 1.63 11.892 3.208 27.574 41.905-5.139 77.269-6.601 79.949-6.71.619-.051 89.014-6.33 116.349 63.138 25.151 63.913-11.344 133.417-50.238 173.516-30.904 31.857-65.761 49.996-93.959 49.999zm9.133-107.721c-12.028 0-14.892 2.761-15.553 4.256-.975 2.2-.1 5.088 2.038 6.713 24.221 18.432 33.833 16.637 36.846 15.008 5.836-3.152 6.382-14.617 6.114-18.388-.08-1.444-.176-2.928-.29-4.441-13.231-2.319-22.568-3.148-29.155-3.148zm-72.955-157.537c-31.531 4.343-64.902 10.759-89.105 20.115-21.971 8.487-35.803 22.684-40 41.058-5.494 24.049 5.836 54.717 29.568 80.043 26.777 28.572 50.779 42.032 67.584 37.92 12.359-3.029 21.729-15.681 27.847-37.606 10.51-37.656 7.64-100.44 4.106-141.53z"/><path d="m218.946 164.94c-.014 0-.027 0-.043 0-15.207-.014-28.057-8.096-36.183-22.757-9.67-17.447-7.768-41.829 4.848-62.114 10.801-17.368 26.828-27.284 42.922-26.506 17.017.818 31.071 11.592 34.971 26.817 4.9 19.127-6.61 39.39-30.789 54.195-3.051 1.871-7.044.916-8.917-2.142-1.871-3.054-.912-7.046 2.142-8.917 19.065-11.675 28.411-26.6 24.999-39.918-2.517-9.826-11.556-16.528-23.028-17.078-11.261-.554-23.005 7.082-31.285 20.401-8.333 13.398-12.962 33.74-4.517 48.973 5.823 10.506 14.417 16.065 24.85 16.076h.031c13.687 0 28.069-9.949 36.654-25.359 1.743-3.13 5.691-4.249 8.821-2.512 3.129 1.744 4.252 5.693 2.51 8.823-11.003 19.753-29.389 32.018-47.986 32.018z"/><path d="m267.105 606.661v-86.022h-10.483v-4.021h31.02v78.267c0 5.744-2.298 8.904-8.76 9.909z"/><path d="m229.614 572.326c-.577-.539-1.208-1.036-1.841-1.531-1.831 6.869-5.562 11.597-11.938 11.596-9.765-.001-13.355-11.059-13.353-23.984.001-13.068 3.593-24.126 13.358-24.125 3.561 0 6.293 1.484 8.337 3.987 4.018.762 7.871 1.865 11.468 3.357 5.193 2.155 9.856 5.051 13.86 8.548-4.372-12.828-18.799-20.057-33.667-20.057-17.807 0-35.041 10.34-35.041 28.291 0 17.807 17.233 28.147 35.041 28.147 7.108 0 14.105-1.673 19.97-4.786-1.238-3.63-3.363-6.799-6.194-9.443z"/><path d="m116.396 584.281c5.936-3.208 12.791-7.416 20.536-12.88v-54.782h-31.02v4.021h10.483v63.641z"/><path d="m116.396 601.553v48.334l11.776-1.867c6.462-1.005 8.76-4.165 8.76-9.909v-44.944c-7.585 3.458-14.487 6.223-20.536 8.386z"/><path d="m330.857 600.622c2.624-.456 5.285-.795 7.943-.968 0 0 6.522-.359 14.747-1.344v-54.406h38.631c.862-2.01.862-2.298-.862-3.877l-11.058-10.196c-1.867-1.723-2.441-1.723-4.021 0-4.021 4.452-8.329 10.196-17.664 10.196h-36.763v3.877h9.047z"/><path d="m396.056 516.618v4.021h10.483v35.272 28.37 17.273 14.269 34.065l11.776-1.867c6.462-1.005 8.76-4.165 8.76-9.909v-22.289-22.655-21.768-15.489-39.293z"/><path d="m178.722 547.041c-6.372 2.798-12.732 6.486-18.921 11.266-33.882 29.055-56.252 37.668-65.907 40.218-9.162 1.836-19.82 3.159-30.49 4.545v-59.167h38.631c.862-2.01.862-2.298-.862-3.877l-11.058-10.196c-1.867-1.723-2.441-1.723-4.021 0-4.021 4.452-8.329 10.196-17.664 10.196h-36.763v3.877h9.047v68.071l17.807-2.585c10.892-1.581 21.079-3.187 29.919-4.914v.005s3.907-.557 10.808-2.359c3.724-.917 7.028-1.875 9.867-2.884 14.743-4.71 36.39-13.377 61.98-29.097 2.096-1.288 4.22-2.424 6.352-3.46-.885-2.546-1.404-5.294-1.404-8.271 0-4.23.985-8.019 2.679-11.368z"/><path d="m254.968 564.052c-5.019-8.448-12.969-15.014-22.698-19.051-6.506-2.7-13.794-4.255-21.532-4.481-2.469 4.457-3.518 10.873-3.519 17.888 0 .489.015.969.026 1.453 10.503.259 19.673 3.518 25.693 9.141 3.731 3.485 6.254 7.872 7.105 13.042.946 5.743-.182 12.441-3.942 19.887-.578 1.036-1.139 2.084-1.741 3.101 8.976 2.901 16.183 7.108 18.688 8.665 10.302-18.459 9.712-36.53 1.92-49.645z"/><path d="m290.801 643.855-6.462-17.089c-.862-2.298-1.292-2.585-3.447-2.154-5.314 1.005-13.93 3.303-21.972-1.723l-8.329-5.17c-.001 0-.001 0-.002-.001l.002-.002s-37.1-24.884-58.926-3.658c-5.574 5.42-7.048 14.581-5.236 21.872 1.504 6.05 6.131 11.765 17.768 9.284l-.019.072c.552-.114 1.262-.326 1.905-.496.285-.078.519-.095.813-.183l.008-.031c9.057-2.58 25.285-9.966 36.808-20.057-6.086-3.751-11.81-6.387-17.113-8.125-5.316 6.761-11.282 12.657-17.372 17.613-3.116 2.178-20.165 13.192-18.764-7.874.867-13.037 23.506-25.58 56.821-4.974.026.017.114.074.116.076l15.254 9.552c11.058 6.893 18.669 11.776 26.998 17.951 2.154-1.149 2.298-1.58 1.149-4.883z"/><path d="m383.86 598.6c-8.444 1.667-18.078 2.929-27.853 4.195l.179-.065c-9.435 1.24-17.386 1.67-17.386 1.67-21.686 1.411-43.593 13.658-43.593 13.658-2.043 1.106-3.789 2.344-5.302 3.252-1.895 1.111-2.026 1.612-1.141 3.901l6.54 17.06c1.339 3.231 1.733 3.457 4.106 2.882.651-3.13.981-6.232 2.073-9.132 8.126-21.579 29.374-24.046 29.374-24.046l.332-.121v.121l17.807-2.585c11.142-1.617 21.526-3.263 30.502-5.035 1.112-.189 3.434-.624 6.813-1.435 5.538-1.252 10.251-2.587 14.082-4.015.356-.116.756-.259 1.119-.379v-6.801c-7.908 3.886-13.837 5.879-17.652 6.875z"/><path d="m469 547.041c-6.372 2.798-12.732 6.486-18.921 11.266-6.528 5.598-12.582 10.366-18.25 14.551v13.365c9.054-4.32 18.94-9.57 29.544-16.084 2.096-1.288 4.22-2.424 6.352-3.46-.885-2.546-1.404-5.294-1.404-8.271 0-4.229.984-8.018 2.679-11.367z"/></g></svg>