<svg enable-background="new 0 0 500 200" viewBox="0 0 500 200" xmlns="http://www.w3.org/2000/svg"><g fill="#fff"><path d="m266.296 122.744v-83.581h-10.186v-3.907h30.139v76.046c0 5.581-2.233 8.651-8.512 9.628z"/><path d="m229.868 89.383c-.56-.524-1.174-1.006-1.789-1.488-1.779 6.675-5.404 11.268-11.599 11.267-9.488-.001-12.976-10.745-12.974-23.303.001-12.698 3.491-23.442 12.979-23.441 3.46 0 6.114 1.442 8.1 3.874 3.904.74 7.648 1.812 11.142 3.262 5.045 2.094 9.577 4.907 13.467 8.305-4.248-12.464-18.266-19.488-32.712-19.488-17.302 0-34.046 10.046-34.046 27.488 0 17.302 16.744 27.349 34.046 27.349 6.907 0 13.705-1.626 19.404-4.65-1.202-3.527-3.267-6.606-6.018-9.175z"/><path d="m119.863 100.999c5.767-3.117 12.428-7.205 19.953-12.515v-53.228h-30.139v3.907h10.186z"/><path d="m119.863 117.781v46.962l11.442-1.814c6.279-.977 8.512-4.046 8.512-9.628v-43.669c-7.37 3.361-14.076 6.047-19.954 8.149z"/><path d="m328.239 116.876c2.55-.443 5.135-.773 7.717-.941 0 0 6.337-.349 14.329-1.306v-52.861h37.535c.837-1.953.837-2.233-.837-3.767l-10.744-9.907c-1.814-1.674-2.372-1.674-3.907 0-3.907 4.325-8.093 9.906-17.163 9.906h-35.721v3.767h8.791z"/><path d="m391.587 35.256v3.907h10.186v34.271 27.565 16.783 13.864 33.098l11.442-1.814c6.279-.977 8.512-4.046 8.512-9.628v-21.656-22.012-21.15-15.05-38.178z"/><path d="m180.421 64.816c-6.191 2.718-12.371 6.302-18.384 10.947-32.921 28.23-54.655 36.599-64.037 39.077-8.902 1.784-19.257 3.069-29.624 4.416v-57.488h37.535c.837-1.953.837-2.233-.837-3.767l-10.744-9.907c-1.814-1.674-2.372-1.674-3.907 0-3.908 4.325-8.094 9.906-17.164 9.906h-35.721v3.767h8.791v66.139l17.302-2.512c10.583-1.536 20.481-3.097 29.07-4.775v.005s3.796-.542 10.501-2.293c3.618-.891 6.829-1.822 9.587-2.802 14.325-4.576 35.357-12.998 60.222-28.271 2.037-1.252 4.1-2.356 6.172-3.362-.86-2.474-1.365-5.144-1.365-8.037 0-4.107.956-7.789 2.603-11.043z"/><path d="m254.503 81.344c-4.876-8.208-12.601-14.588-22.053-18.511-6.322-2.623-13.402-4.134-20.921-4.354-2.399 4.331-3.418 10.565-3.419 17.38 0 .475.015.942.025 1.412 10.205.252 19.114 3.419 24.964 8.882 3.625 3.386 6.076 7.649 6.903 12.672.919 5.58-.177 12.088-3.83 19.323-.561 1.006-1.107 2.025-1.692 3.013 8.721 2.819 15.724 6.906 18.157 8.419 10.01-17.935 9.437-35.493 1.866-48.236z"/><path d="m289.319 158.883-6.279-16.604c-.837-2.233-1.256-2.512-3.349-2.093-5.163.977-13.535 3.209-21.349-1.674l-8.093-5.023c-.001-.001-.001-.001-.002-.001l.002-.002s-36.047-24.178-57.254-3.555c-5.416 5.266-6.848 14.167-5.088 21.251 1.461 5.878 5.957 11.431 17.263 9.021l-.018.07c.537-.11 1.226-.317 1.851-.482.277-.076.505-.092.789-.177l.008-.03c8.8-2.506 24.568-9.683 35.763-19.488-5.913-3.644-11.475-6.206-16.627-7.894-5.166 6.569-10.962 12.298-16.879 17.113-3.027 2.117-19.592 12.818-18.231-7.65.842-12.667 22.839-24.854 55.208-4.833.025.016.111.072.113.073l14.821 9.281c10.744 6.698 18.139 11.442 26.232 17.442 2.096-1.117 2.235-1.536 1.119-4.745z"/><path d="m379.738 114.912c-8.204 1.62-17.565 2.846-27.062 4.076l.174-.064c-9.168 1.205-16.893 1.623-16.893 1.623-21.071 1.371-42.356 13.271-42.356 13.271-1.985 1.074-3.681 2.278-5.152 3.16-1.841 1.08-1.968 1.567-1.109 3.79l6.355 16.576c1.301 3.139 1.684 3.359 3.989 2.8.633-3.041.953-6.055 2.015-8.873 7.896-20.967 28.541-23.364 28.541-23.364l.322-.117v.117l17.302-2.512c10.826-1.571 20.915-3.17 29.637-4.892 1.08-.184 3.336-.606 6.62-1.394 5.381-1.217 9.96-2.513 13.682-3.901.346-.112.734-.252 1.087-.368v-6.608c-7.685 3.776-13.446 5.712-17.152 6.68z"/><path d="m462.462 64.816c-6.191 2.718-12.371 6.302-18.384 10.947-6.342 5.439-12.225 10.072-17.732 14.138v12.986c8.797-4.197 18.402-9.298 28.705-15.628 2.037-1.252 4.1-2.356 6.172-3.362-.86-2.474-1.365-5.144-1.365-8.037 0-4.108.957-7.79 2.604-11.044z"/></g></svg>